Coordinates
version=1
nRows=19
nColumns=24
inDegrees=yes

Units are S.I. units (second, meters, Newtons, ...)
If the header above contains a line with 'inDegrees', this indicates whether rotational values are in degrees (yes) or radians (no).

endheader
time	pelvis_tilt	pelvis_list	pelvis_rotation	pelvis_tx	pelvis_ty	pelvis_tz	hip_flexion_r	hip_adduction_r	hip_rotation_r	knee_angle_r	ankle_angle_r	subtalar_angle_r	mtp_angle_r	hip_flexion_l	hip_adduction_l	hip_rotation_l	knee_angle_l	ankle_angle_l	subtalar_angle_l	mtp_angle_l	lumbar_extension	lumbar_bending	lumbar_rotation
      4.20008400	     16.47242738	     -9.54416381	    -87.25398407	      0.29946587	      0.94866467	      5.29526929	     -2.32288003	     -9.36392000	      1.20760085	     -0.79300851	      5.75564341	      0.05020629	     -6.19619127	     -9.35699472	     13.16803642	     -6.87387629	    -51.49193744	     48.10059152	    -18.38954692	   -122.32033587	    -15.52112647	    -18.74913648	     14.69903714
      4.21675100	     14.89120158	    -10.20297522	    -87.63267514	      0.30145224	      0.95424554	      5.31726982	     -4.92219737	     -7.91774806	      1.37900648	      0.09574474	      5.27103826	      0.22323633	     -3.93541059	     -6.66726304	     11.43631870	     -7.31447267	    -52.69296879	     49.58421044	    -17.80753807	   -122.40942451	    -16.31160681	    -16.85721978	     13.79415064
      4.23341800	     13.19092199	    -10.77591237	    -88.03716071	      0.30446779	      0.95951692	      5.33782790	     -7.23049562	     -6.40925667	      1.60552608	      0.85562266	      4.86260466	      0.40939562	     -2.36675648	     -4.26552977	      9.76709469	     -7.10793673	    -52.12465271	     51.65178366	    -17.01155342	   -123.09673672	    -17.08031819	    -14.75128107	     12.76605794
      4.25008500	     11.56836371	    -11.10752392	    -88.56850769	      0.30749336	      0.96395131	      5.35835371	     -9.29612327	     -5.02795792	      2.19321704	      1.70087348	      4.04228119	      0.34690753	     -0.03843820	     -1.86032284	      8.21433949	     -6.95191652	    -50.66954567	     53.20655545	    -16.74494479	   -123.36776776	    -17.54268510	    -12.81725014	     11.86088386
      4.26675200	     10.12460461	    -11.28489400	    -89.44391191	      0.31009867	      0.96767678	      5.37903139	    -11.24405364	     -3.93612168	      3.34948973	      2.71717540	      3.10405787	     -0.10305705	      2.00390933	      0.61857820	      6.90612532	     -7.49898574	    -48.76364433	     53.75172781	    -17.65487460	   -122.52993007	    -17.73406614	    -11.25110177	     11.14841366
      4.28341900	      8.73374423	    -11.43527728	    -90.71791891	      0.31245026	      0.97082870	      5.39953386	    -13.14303154	     -3.07693646	      5.07758494	      3.80197145	      2.01264788	     -0.79241115	      4.02281682	      2.91454951	      5.73962823	     -8.58604191	    -46.09737356	     53.59994689	    -18.99592331	   -120.77748653	    -17.82157819	     -9.89171955	     10.60562790
      4.30008600	      7.24042132	    -11.56589944	    -91.99065142	      0.31492928	      0.97302010	      5.42037768	    -15.09818999	     -2.18512817	      6.91910579	      4.90751729	      1.04969794	     -1.66758403	      5.76349351	      4.73161717	      4.42933975	     -9.35038559	    -42.57230044	     52.72193619	    -19.21532271	   -117.77074672	    -17.85596586	     -8.49068377	      9.91790934
      4.31675300	      5.57420458	    -11.71598569	    -93.29395874	      0.31764553	      0.97414374	      5.44174568	    -17.24978672	     -1.19896586	      8.69116853	      6.17044473	      0.02942946	     -2.52057194	      7.66716770	      6.01982672	      2.77633759	     -9.51121505	    -38.29447075	     50.80466125	    -17.58803348	   -112.92766280	    -17.84503439	     -6.98182832	      9.04146325
      4.33342000	      3.81593934	    -11.88101066	    -94.54649744	      0.32057390	      0.97442434	      5.46346886	    -19.52355521	     -0.22982135	     10.64805407	      7.48032781	     -0.89129449	     -3.66640118	      9.30419788	      6.92969123	      0.92532671	     -9.21220151	    -33.64911580	     47.80588231	    -14.58003825	   -105.57500370	    -17.84389405	     -5.42620894	      7.94925218
      4.35008700	      2.00813243	    -11.97835332	    -95.88831311	      0.32396263	      0.97390597	      5.48483216	    -21.66230633	      0.73129676	     12.15366991	      8.57690421	     -1.72084637	     -4.21704123	     11.45304766	      7.58143240	     -0.95564618	     -8.85049552	    -29.24257090	     43.64005236	    -10.00745127	    -93.66003426	    -17.89508234	     -3.84389226	      6.77867057
      4.36675400	      2.97537126	    -11.89192360	    -96.90161146	      0.32623516	      0.97398692	      5.50461072	    -23.28326439	     -0.79515420	     11.15066568	      9.57852241	     -1.01620800	     -2.81561158	     11.65900811	      9.39331290	     -0.31500439	     -8.35561987	    -30.50314319	     23.15010402	      6.51377608	    -30.68924673	    -17.98394896	     -5.17901619	      6.77938218
      4.38342100	      0.45105877	    -11.89546282	    -97.66662271	      0.32990620	      0.97136352	      5.52609991	    -25.16133133	      0.93622218	     13.26383638	     10.06216331	     -1.46460620	     -4.21779764	     13.62770622	      8.99037827	     -2.98271660	     -7.54753804	    -23.67502168	     15.13351748	      6.97741045	    -18.01297510	    -18.23653497	     -2.66041145	      5.73575405
      4.40008800	     -2.32870747	    -11.74922067	    -98.93572800	      0.33412115	      0.96793886	      5.54770609	    -26.92055348	      2.79674013	     14.73195146	     10.33282614	     -1.33573955	     -4.17357717	     14.82301846	      8.31687850	     -6.04156024	     -6.99930036	    -16.61825196	      8.75057903	      6.45875370	     -9.83334026	    -18.41021004	     -0.01470264	      4.51076161
      4.41675500	     -5.38309935	    -11.34251725	   -100.05213737	      0.33767754	      0.96355935	      5.57049214	    -28.49901966	      4.95190467	     16.72956135	     10.33413957	     -1.08497711	     -4.58767734	     15.86528010	      7.34933370	     -9.55290001	     -6.75977345	     -9.21612685	      2.93278746	      6.32737557	     -2.95724665	    -18.46409002	      2.92231411	      3.43723782
      4.43342200	     -8.33531126	    -10.95219077	   -100.71042499	      0.33970222	      0.95872386	      5.59482642	    -30.09466764	      7.07380696	     19.62645845	     10.07786875	     -1.16127597	     -6.32384611	     17.58450542	      6.20880389	    -12.81339065	     -7.98248288	     -2.16623739	     -1.85705624	      7.73187911	      2.90243396	    -18.58293360	      5.80198177	      3.01138427
      4.45008900	    -10.60833086	    -10.91797717	   -101.17732375	      0.34129785	      0.95470333	      5.62016903	    -31.86412318	      8.54575993	     22.23773242	      9.48057467	     -0.89092995	     -7.96522378	     18.71504044	      5.27211954	    -14.91786527	    -10.41871019	      2.78704990	     -4.73137578	     10.47593934	      7.04471914	    -18.93157628	      7.93273817	      2.97958070
      4.46675600	    -12.29452546	    -11.22962895	   -101.82845931	      0.34425365	      0.95166298	      5.64557140	    -33.83062747	      9.36456811	     23.50364208	      8.58342436	     -0.10965161	     -8.04478208	     19.72091431	      4.62213408	    -16.18890708	    -12.51850150	      5.19822491	     -5.74763461	     13.04852033	      9.36631723	    -19.48968937	      9.32941419	      2.51647639
      4.48342300	    -13.73266449	    -11.72391949	   -102.33525125	      0.34835417	      0.94909325	      5.67133042	    -35.79007455	      9.99073973	     24.07465292	      7.34171467	      0.94936845	     -7.52330858	     20.50765598	      4.11025042	    -17.21083427	    -13.50093297	      5.95878183	     -5.78036453	     14.85004869	     10.61442901	    -20.14622094	     10.48390260	      1.72248155
      4.50009000	    -15.05907867	    -12.33742852	   -102.50302950	      0.35344937	      0.94723503	      5.69777086	    -37.57901023	     10.69693798	     23.94907618	      5.66863974	      1.90413124	     -6.55010718	     21.02995447	      3.69303915	    -18.14708809	    -13.48319234	      5.41025215	     -5.19955372	     15.78257236	     10.81875042	    -20.87350145	     11.61508570	      0.68228354
